,
.   http://www.scenetime.com/signup.php  ---&gt;  Hottest scene tracker on the net !!!  

    Join Now   http://www.scenetime.com/signup.php

    seed back for speed


 



...................................NFO:.................................................[IMG]http://img17.imageshack.us/img17/6360/covv63a9c6aepng.png[/IMG]


[color=blue][size=5][b]Crazy.Stupid.Love.2011.BDRip.XVID.AC3.HQ.Hive-CM8[/b][/size][/color]


[b]Thx Hive

CM8 Doing It Right The First Time :D


Source: Bluray

Video: 720x304 @bitrate 1700 2pass
Audio: English DTS to AC3 5.1 @384
Sample: yes included
Subs: yes english in srt /subs[/b]


[url]http://www.imdb.com/title/tt1570728/[/url]


General
Complete name                  : Crazy.Stupid.Love.2011.BDRip.XVID.AC3.HQ.Hive-CM8.avi
Format                         : AVI
Format/Info                    : Audio Video Interleave
File size                      : 1.73 GiB
Duration                       : 1h 58mn
Overall bit rate               : 2 094 Kbps
Writing application            : Nandub v1.0rc2
Writing library                : Nandub build 1853/release

Video
ID                             : 0
Format                         : MPEG-4 Visual
Format profile                 : Advanced Simple@L5
Format settings, BVOP          : 1
Format settings, QPel          : Yes
Format settings, GMC           : No warppoints
Format settings, Matrix        : Default (H.263)
Muxing mode                    : Packed bitstream
Codec ID                       : XVID
Codec ID/Hint                  : XviD
Duration                       : 1h 58mn
Bit rate                       : 1 700 Kbps
Width                          : 720 pixels
Height                         : 304 pixels
Display aspect ratio           : 2.40:1
Frame rate                     : 23.976 fps
Color space                    : YUV
Chroma subsampling             : 4:2:0
Bit depth                      : 8 bits
Scan type                      : Progressive
Compression mode               : Lossy
Bits/(Pixel*Frame)             : 0.324
Stream size                    : 1.40 GiB (81%)
Writing library                : XviD 1.2.1 (UTC 2008-12-04)

Audio
ID                             : 1
Format                         : AC-3
Format/Info                    : Audio Coding 3
Mode extension                 : CM (complete main)
Codec ID                       : 2000
Duration                       : 1h 58mn
Bit rate mode                  : Constant
Bit rate                       : 384 Kbps
Channel(s)                     : 6 channels
Channel positions              : Front: L C R, Side: L R, LFE
Sampling rate                  : 48.0 KHz
Bit depth                      : 16 bits
Compression mode               : Lossy
Stream size                    : 324 MiB (18%)
Alignment                      : Split accross interleaves
Interleave, duration           : 42 ms (1.00 video frame)
Interleave, preload duration   : 500 ms



Plot:

A father's life unravels while he deals with a marital crisis and tries to manage his relationship with his children. 


Cast:

Steve Carell	... 	Cal Weaver
Ryan Gosling	... 	Jacob Palmer
Julianne Moore	... 	Emily Weaver
Emma Stone	... 	Hannah
Analeigh Tipton	... 	Jessica


[IMG]http://img840.imageshack.us/img840/9797/33208393.png[/IMG]
[img]http://img831.imageshack.us/img831/3686/ccrccrcrcrcrrr.png[/img]
[img]http://img811.imageshack.us/img811/8056/ccrccrcrcrrr.png[/img]
[img]http://img812.imageshack.us/img812/6395/ccrccrcrrr.png[/img]
[img]http://img94.imageshack.us/img94/1095/ccrccrrr.png[/img]
[img]http://img194.imageshack.us/img194/2858/ccrcrr.png[/img]
[img]http://img836.imageshack.us/img836/8939/ccrr.png[/img]
[img]http://img690.imageshack.us/img690/3734/ccrccrcrcrcrcrrr.png[/img]




Greetz

ViSiON,SiC,SANTi,3LT0N,YanKeeS,MAGNET,THC,T0XiC,LKRG,FANTASIA-PLAY,FANTASIA-M,FLAWL3SS,
D2U,WBZ,BHRG,NOVA,Vik,Rapeseed,SAFC,goldadvance,MEMORY100,KaN1vE,Unevano,Pinnz,Wayne
Mr Hive,cedrict wink,and all P2P groups
Great Work Guys :D

LOOKING FOR ANYTHING YOU WANT TO LOOK AND SOUND BETTER

CM8@hushmail.com